<svg width="13" height="12" viewBox="0 0 13 12" fill="none" xmlns="http://www.w3.org/2000/svg">
<path d="M11 6.395C10.9214 7.2461 10.6019 8.0572 10.0791 8.73339C9.55633 9.40958 8.85176 9.9229 8.04786 10.2133C7.24397 10.5036 6.374 10.5591 5.53976 10.373C4.70552 10.187 3.94151 9.76727 3.33712 9.16289C2.73274 8.5585 2.31298 7.79449 2.12697 6.96025C1.94095 6.12601 1.99637 5.25604 2.28674 4.45215C2.57711 3.64825 3.09043 2.94368 3.76662 2.42088C4.44281 1.89807 5.25391 1.57865 6.10501 1.5C5.60672 2.17413 5.36694 3.00472 5.42928 3.84071C5.49162 4.67669 5.85194 5.46253 6.44471 6.0553C7.03748 6.64807 7.82332 7.00839 8.65931 7.07073C9.49529 7.13308 10.3259 6.89329 11 6.395Z" stroke="#A8E0FF" stroke-linecap="round" stroke-linejoin="round"/>
</svg>
